<svg xmlns="http://www.w3.org/2000/svg" width="30.158" height="24" viewBox="0 0 30.158 24"><defs><style>.a{fill:#fff;}</style></defs><path class="a" d="M76.473,120.939l-10.756,8.867a.254.254,0,0,1-.009.056.256.256,0,0,0-.009.056V138.9a1.215,1.215,0,0,0,1.2,1.2h7.183v-7.183h4.789v7.183H86.05a1.216,1.216,0,0,0,1.2-1.2v-8.979a.263.263,0,0,0-.019-.112Z" transform="translate(-61.394 -116.094)"/><path class="a" d="M29.949,58.685l-4.1-3.4V47.649a.577.577,0,0,0-.6-.6H21.663a.576.576,0,0,0-.6.6V51.3L16.5,47.48a2.321,2.321,0,0,0-2.843,0L.207,58.685a.543.543,0,0,0-.206.4.606.606,0,0,0,.131.44l1.16,1.384a.638.638,0,0,0,.393.206.7.7,0,0,0,.449-.131L15.078,50.193,28.023,60.986a.577.577,0,0,0,.393.13h.056a.639.639,0,0,0,.393-.206l1.16-1.384a.605.605,0,0,0,.13-.44A.545.545,0,0,0,29.949,58.685Z" transform="translate(0.001 -46.994)"/></svg>