<svg xmlns="http://www.w3.org/2000/svg" width="129.169" height="129.169" viewBox="0 0 129.169 129.169"><defs><style>.a{fill:#ef8354;}.b{fill:#fff;}</style></defs><g transform="translate(-122.584 -51.475)"><circle class="a" cx="56.294" cy="56.294" r="56.294" transform="matrix(0.16, -0.987, 0.987, 0.16, 122.584, 162.609)"/><g transform="translate(158.073 82.383)"><g transform="translate(12.844)"><path class="b" d="M154.866,94.228a16.252,16.252,0,1,1,16.249-16.252A16.273,16.273,0,0,1,154.866,94.228Zm0-29.488A13.236,13.236,0,1,0,168.1,77.976,13.252,13.252,0,0,0,154.866,64.74Z" transform="translate(-138.611 -61.724)"/></g><g transform="translate(0 29.488)"><path class="b" d="M192.544,102.106H134.352V100.6a29.1,29.1,0,1,1,58.192,0ZM137.413,99.09h52.07a26.079,26.079,0,0,0-52.07,0Z" transform="translate(-134.352 -71.502)"/></g></g></g></svg>