<svg xmlns="http://www.w3.org/2000/svg" width="20.995" height="21.299" viewBox="0 0 20.995 21.299"><defs><style>.a{fill:#2d3142;}</style></defs><g transform="translate(0)"><path class="a" d="M21.164,4.5a1.474,1.474,0,0,0,1.477-1.475V1.477a1.477,1.477,0,1,0-2.954,0V3.021A1.473,1.473,0,0,0,21.164,4.5Z" transform="translate(-5.44)"/><path class="a" d="M21.18,3.48H18.206v.751a2.249,2.249,0,1,1-4.5,0V3.48h-6v.751a2.249,2.249,0,1,1-4.5,0V3.48l-3-.037V22.224H19.7l1.5,0ZM19.7,20.728H1.709v-12h18v12Z" transform="translate(-0.208 -0.925)"/><path class="a" d="M6.812,4.5A1.474,1.474,0,0,0,8.29,3.021V1.477a1.477,1.477,0,1,0-2.954,0V3.021A1.472,1.472,0,0,0,6.812,4.5Z" transform="translate(-1.585)"/><rect class="a" width="2.363" height="2.086" transform="translate(7.504 9.415)"/><rect class="a" width="2.365" height="2.086" transform="translate(11.325 9.415)"/><rect class="a" width="2.363" height="2.086" transform="translate(14.869 9.415)"/><rect class="a" width="2.363" height="2.084" transform="translate(7.504 12.879)"/><rect class="a" width="2.365" height="2.084" transform="translate(11.325 12.879)"/><rect class="a" width="2.363" height="2.084" transform="translate(14.869 12.879)"/><rect class="a" width="2.363" height="2.084" transform="translate(7.504 16.412)"/><rect class="a" width="2.362" height="2.084" transform="translate(3.751 12.879)"/><rect class="a" width="2.362" height="2.084" transform="translate(3.751 16.412)"/><rect class="a" width="2.365" height="2.084" transform="translate(11.325 16.412)"/><rect class="a" width="2.363" height="2.084" transform="translate(14.869 16.412)"/></g></svg>