<svg xmlns="http://www.w3.org/2000/svg" width="36" height="36" viewBox="0 0 36 36"><defs><style>.a,.b{fill:#fff;}.a{opacity:0;}</style></defs><rect class="a" width="36" height="36"/><g transform="translate(5.832 6.652)"><g transform="translate(9.676 6.044)"><path class="b" d="M210.59,144.4h-6.044a.964.964,0,0,0,0,1.929h6.044a.964.964,0,1,0,0-1.929Z" transform="translate(-203.582 -144.402)"/></g><g transform="translate(9.676 10.705)"><path class="b" d="M212.9,242.473h-8.358a.964.964,0,0,0,0,1.929H212.9a.964.964,0,0,0,0-1.929Z" transform="translate(-203.582 -242.473)"/></g><path class="b" d="M23.371,17.247H6.3a.964.964,0,0,0-.964.964v9.1h-1.7A3.637,3.637,0,0,0,0,30.942v5.369a3.634,3.634,0,0,0,4.116,3.6H20.028A4.313,4.313,0,0,0,24.336,35.6V18.211A.964.964,0,0,0,23.371,17.247ZM5.337,36.311a1.707,1.707,0,0,1-1.374,1.672h-.33v.032a1.706,1.706,0,0,1-1.7-1.7V30.942a1.706,1.706,0,0,1,1.7-1.7h1.7v7.073ZM22.407,35.6a2.411,2.411,0,0,1-2.379,2.379H6.857a3.609,3.609,0,0,0,.408-1.672V19.176H22.407V35.6Z" transform="translate(0 -17.247)"/><g transform="translate(9.676 15.078)"><path class="b" d="M210.59,334.464h-6.044a.964.964,0,1,0,0,1.929h6.044a.964.964,0,1,0,0-1.929Z" transform="translate(-203.582 -334.464)"/></g></g></svg>