<svg xmlns="http://www.w3.org/2000/svg" width="36" height="36" viewBox="0 0 36 36"><defs><style>.a,.b{fill:#fff;}.a{opacity:0;}</style></defs><rect class="a" width="36" height="36"/><path class="b" d="M18.375,24H5.625A5.631,5.631,0,0,1,0,18.375V5.625A5.631,5.631,0,0,1,5.625,0h12.75A5.631,5.631,0,0,1,24,5.625v12.75A5.631,5.631,0,0,1,18.375,24ZM5.625,1.875a3.754,3.754,0,0,0-3.75,3.75v12.75a3.754,3.754,0,0,0,3.75,3.75h12.75a3.754,3.754,0,0,0,3.75-3.75V5.625a3.754,3.754,0,0,0-3.75-3.75Zm.8,14.625A.937.937,0,0,1,5.5,15.379l.531-2.656A6.759,6.759,0,0,1,7.888,9.257l4.505-4.505a3.422,3.422,0,1,1,4.839,4.839L12.727,14.1a6.759,6.759,0,0,1-3.465,1.854l-2.656.531a.939.939,0,0,1-.184.018ZM14.813,5.625a1.537,1.537,0,0,0-1.094.453L9.214,10.583A4.889,4.889,0,0,0,7.872,13.09l-.255,1.277,1.277-.255A4.889,4.889,0,0,0,11.4,12.771l4.505-4.505a1.554,1.554,0,0,0,0-2.188h0a1.537,1.537,0,0,0-1.094-.453Zm5.25,13.688a.937.937,0,0,0-.937-.937H4.875a.938.938,0,0,0,0,1.875h14.25A.937.937,0,0,0,20.063,19.313Z" transform="translate(6 6)"/></svg>