<svg xmlns="http://www.w3.org/2000/svg" width="36" height="36" viewBox="0 0 36 36"><defs><style>.a,.b{fill:#fff;}.a{opacity:0;}</style></defs><rect class="a" width="36" height="36"/><g transform="translate(3.864 2.745)"><g transform="translate(0 2.415)"><path class="b" d="M17.963,23.931a8.863,8.863,0,0,1-8.4-6.073h-4.7V16.123H9.177a8.736,8.736,0,0,1,.046-2.429H4.858V11.959H9.684a8.851,8.851,0,0,1,1.4-2.429H4.858V7.795H12.95a8.822,8.822,0,0,1,8.218-.958V2.415H0v22.21A3.48,3.48,0,0,0,3.47,28.1H17.7a3.48,3.48,0,0,0,3.47-3.47v-1.3A8.8,8.8,0,0,1,17.963,23.931Z" transform="translate(0 -2.415)"/></g><g transform="translate(10.848 7.967)"><path class="b" d="M33.242,23.817a7.176,7.176,0,1,0-1.679,1.757l4.353,4.353,1.717-1.718Zm-5.919,1.434A5.379,5.379,0,1,1,32.7,19.872,5.385,5.385,0,0,1,27.323,25.251Z" transform="translate(-20.208 -12.758)"/></g></g></svg>