<svg xmlns="http://www.w3.org/2000/svg" width="36" height="36" viewBox="0 0 36 36"><defs><style>.a,.b{fill:#fff;}.a{opacity:0;}</style></defs><rect class="a" width="36" height="36"/><g transform="translate(5.975 6.685)"><g transform="translate(7.845 18.155)"><g transform="translate(0 0)"><path class="b" d="M172.823,399.834h-7.034a.812.812,0,0,0,0,1.623h7.034a.812.812,0,0,0,0-1.623Z" transform="translate(-164.977 -399.834)"/></g></g><g transform="translate(7.845 15.595)"><path class="b" d="M172.823,346.006h-7.034a.812.812,0,1,0,0,1.623h7.034a.812.812,0,0,0,0-1.623Z" transform="translate(-164.977 -346.006)"/></g><g transform="translate(0 0)"><path class="b" d="M22.454,23.574H19.872v-4.7a.812.812,0,0,0-.812-.812H5.288a.812.812,0,0,0-.812.812v4.7H1.894A1.9,1.9,0,0,0,0,25.468v8.165a1.9,1.9,0,0,0,1.894,1.894H4.476v4.357a.812.812,0,0,0,.812.812H19.06a.812.812,0,0,0,.812-.812V35.526h2.582a1.9,1.9,0,0,0,1.894-1.894V25.468A1.9,1.9,0,0,0,22.454,23.574ZM6.1,19.688H18.249v3.886H6.1ZM18.248,39.072H6.1v-6.64H18.249C18.248,32.633,18.248,38.919,18.248,39.072Zm.812-10.732H16.994a.812.812,0,0,1,0-1.623H19.06a.812.812,0,1,1,0,1.623Z" transform="translate(0 -18.065)"/></g></g></svg>